# xmcd CD Database Entry
#
# Track frame offsets:
# 150
# 24471
# 44223
# 62987
# 74115
# 79412
# 109011
# 161885
# 190527
# 207424
# 221472
# 232121
# 250375
# 266923
#
# Disc length: 4013 seconds
#
# Revision: 1
# Processed by: cddbd v1.4PL0 Copyright (c) Steve Scherf et al.
# Submitted via: tcd 2.0b
#
DISCID=e20fab0e
DTITLE=Silvio Rodriguez - Causas y Azares
DYEAR=1900
DGENRE=
TTITLE0=causas y azares
TTITLE1=canto arena
TTITLE2=solo el amor
TTITLE3=historia de las sillas
TTITLE4=cancion en harapos (fragmento)
TTITLE5=cancion en arapos
TTITLE6=hallazgo de las piedras - te conozco /
TTITLE7=sueño de una noche de verano
TTITLE8=en mi calle
TTITLE9=cuando digo futuro
TTITLE10=el pintor de las mujeres soles
TTITLE11=boga boga
TTITLE12=requiem
TTITLE13=no hacen falta alas
EXTD=
EXTT0=
EXTT1=
EXTT2=
EXTT3=
EXTT4=
EXTT5=
EXTT6=
EXTT7=
EXTT8=
EXTT9=
EXTT10=
EXTT11=
EXTT12=
EXTT13=
PLAYORDER=
